<?xml version="1.0" encoding="UTF-8" standalone="no"?>
<!-- Created with Inkscape (http://www.inkscape.org/) -->

<svg
   xmlns:dc="http://purl.org/dc/elements/1.1/"
   xmlns:cc="http://creativecommons.org/ns#"
   xmlns:rdf="http://www.w3.org/1999/02/22-rdf-syntax-ns#"
   xmlns:svg="http://www.w3.org/2000/svg"
   xmlns="http://www.w3.org/2000/svg"
   xmlns:sodipodi="http://sodipodi.sourceforge.net/DTD/sodipodi-0.dtd"
   xmlns:inkscape="http://www.inkscape.org/namespaces/inkscape"
   width="210mm"
   height="297mm"
   viewBox="0 0 744.09448819 1052.3622047"
   id="svg3606"
   version="1.1"
   inkscape:version="0.91 r13725"
   sodipodi:docname="Kourosh.svg">
  <defs
     id="defs3608" />
  <sodipodi:namedview
     id="base"
     pagecolor="#ffffff"
     bordercolor="#666666"
     borderopacity="1.0"
     inkscape:pageopacity="0.0"
     inkscape:pageshadow="2"
     inkscape:zoom="1.4"
     inkscape:cx="338.67167"
     inkscape:cy="750.22845"
     inkscape:document-units="px"
     inkscape:current-layer="layer1"
     showgrid="false"
     inkscape:window-width="1920"
     inkscape:window-height="1053"
     inkscape:window-x="-9"
     inkscape:window-y="-9"
     inkscape:window-maximized="1" />
  <metadata
     id="metadata3611">
    <rdf:RDF>
      <cc:Work
         rdf:about="">
        <dc:format>image/svg+xml</dc:format>
        <dc:type
           rdf:resource="http://purl.org/dc/dcmitype/StillImage" />
        <dc:title></dc:title>
      </cc:Work>
    </rdf:RDF>
  </metadata>
  <g
     inkscape:label="Layer 1"
     inkscape:groupmode="layer"
     id="layer1"
     style="display:inline">
    <path
       style="fill:#008080;fill-rule:evenodd;stroke:#000000;stroke-width:1px;stroke-linecap:butt;stroke-linejoin:miter;stroke-opacity:1"
       d="m 645.48748,250.30106 c -16.08777,25.84863 -56.35081,44.44469 -47.47717,77.78175 l -145.46197,-1.01015 -280.82241,-6.06092 c -23.91286,-2.09594 -92.461978,-14.15469 -100.005099,33.33504 1.244192,21.17527 -28.185389,62.27937 47.477169,80.8122 l 63.63961,0 215.16249,-17.1726 169.70563,-25.25381 c 53.01118,-9.76481 64.41751,-4.37733 61.61931,-29.29443 z"
       id="path3614"
       inkscape:connector-curvature="0"
       sodipodi:nodetypes="ccccccccccc" />
    <ellipse
       style="fill:#fff6d5"
       id="path3642"
       cx="574.27173"
       cy="344.75031"
       rx="11.616755"
       ry="10.606602" />
    <ellipse
       style="fill:#fff6d5"
       id="path3642-9"
       cx="534.37073"
       cy="345.25543"
       rx="11.616755"
       ry="10.606602" />
    <ellipse
       style="fill:#fff6d5"
       id="path3642-9-6"
       cx="499.01538"
       cy="346.26556"
       rx="11.616755"
       ry="10.606602" />
    <ellipse
       style="fill:#fff6d5"
       id="path3642-9-5"
       cx="462.64987"
       cy="348.28586"
       rx="11.616755"
       ry="10.606602" />
    <ellipse
       style="fill:#fff6d5"
       id="path3642-9-2"
       cx="423.25394"
       cy="349.29602"
       rx="11.616755"
       ry="10.606602" />
    <ellipse
       style="fill:#fff6d5"
       id="path3642-9-24"
       cx="386.88843"
       cy="349.29605"
       rx="11.616755"
       ry="10.606602" />
    <ellipse
       style="fill:#fff6d5"
       id="path3642-9-24-3"
       cx="352.54321"
       cy="349.29602"
       rx="11.616755"
       ry="10.606602" />
    <ellipse
       style="fill:#fff6d5"
       id="path3642-9-24-31"
       cx="306.07623"
       cy="352.32648"
       rx="11.616755"
       ry="10.606602" />
    <ellipse
       style="fill:#fff6d5"
       id="path3642-9-24-9"
       cx="263.64981"
       cy="352.32648"
       rx="11.616755"
       ry="10.606602" />
    <ellipse
       style="fill:#fff6d5"
       id="path3642-9-24-39"
       cx="230.31477"
       cy="351.31635"
       rx="11.616755"
       ry="10.606602" />
    <path
       style="fill:#e3dbdb;fill-rule:evenodd;stroke:#000000;stroke-width:1px;stroke-linecap:butt;stroke-linejoin:miter;stroke-opacity:1"
       d="m 69.700526,368.48891 c 42.874994,4.85388 65.153724,-16.03757 75.761444,-51.51778 l 0,0"
       id="path3734"
       inkscape:connector-curvature="0"
       sodipodi:nodetypes="ccc" />
    <path
       style="fill:#e3dbdb"
       d="m 71.736287,363.40107 c 0.243321,-1.52785 0.718044,-5.38215 1.054939,-8.56511 1.743988,-16.47707 15.344939,-29.38141 35.411164,-33.59748 7.24399,-1.52202 32.74151,-3.27966 32.74151,-2.257 0,0.6143 -68.226211,47.19751 -69.125913,47.19751 -0.288257,0 -0.325022,-1.25006 -0.0817,-2.77792 z"
       id="path3736"
       inkscape:connector-curvature="0" />
    <path
       style="fill:#e3dbdb"
       d=""
       id="path3738"
       inkscape:connector-curvature="0" />
  </g>
  <g
     inkscape:groupmode="layer"
     id="layer2"
     inkscape:label="Wings"
     style="display:inline">
    <path
       style="fill:#00ffff;fill-rule:evenodd;stroke:#000000;stroke-width:1px;stroke-linecap:butt;stroke-linejoin:miter;stroke-opacity:1"
       d="M 245.46707,321.01174 506.08643,157.36703 c 27.60047,-25.5698 32.54209,-5.82191 45.45686,-2.0203 12.28067,16.64973 16.5733,32.50065 2.02031,46.46701 l -147.48228,123.23861 0,-1.01015"
       id="path3617"
       inkscape:connector-curvature="0"
       sodipodi:nodetypes="cccccc" />
  </g>
  <g
     inkscape:groupmode="layer"
     id="layer4"
     inkscape:label="Wings 2"
     style="display:inline">
    <path
       style="fill:#00ffff;fill-rule:evenodd;stroke:#000000;stroke-width:1px;stroke-linecap:butt;stroke-linejoin:miter;stroke-opacity:1"
       d="m 227.11878,390.62015 260.61937,163.6447 c 27.60047,25.5698 32.54209,5.82191 45.45686,2.0203 12.28067,-16.64973 16.5733,-32.50065 2.02031,-46.46701 l -147.48228,-123.2386 0,1.01015"
       id="path3617-7"
       inkscape:connector-curvature="0"
       sodipodi:nodetypes="cccccc" />
    <path
       style="fill:none;fill-rule:evenodd;stroke:#000000;stroke-width:1px;stroke-linecap:butt;stroke-linejoin:miter;stroke-opacity:1"
       d="m 383.85797,384.65135 -155.56349,6.06092 -1.01016,1.01015"
       id="path3640"
       inkscape:connector-curvature="0" />
  </g>
  <g
     inkscape:groupmode="layer"
     id="layer3"
     inkscape:label="Wings 1"
     style="display:inline" />
</svg>
